<svg width="50" height="50" viewBox="0 0 50 50" fill="none" xmlns="http://www.w3.org/2000/svg">
<path d="M41.6719 6.25H8.32812C7.77824 6.25409 7.25203 6.47435 6.86319 6.86319C6.47435 7.25203 6.25409 7.77824 6.25 8.32812V41.6719C6.25409 42.2218 6.47435 42.748 6.86319 43.1368C7.25203 43.5257 7.77824 43.7459 8.32812 43.75H26.2812V29.25H21.4062V23.5781H26.2812V19.4062C26.2812 14.5625 29.2344 11.9219 33.5781 11.9219C35.0312 11.9219 36.4844 11.9219 37.9375 12.1406V17.1875H34.9531C32.5938 17.1875 32.1406 18.3125 32.1406 19.9531V23.5625H37.7656L37.0313 29.2344H32.1406V43.75H41.6719C42.2218 43.7459 42.748 43.5257 43.1368 43.1368C43.5257 42.748 43.7459 42.2218 43.75 41.6719V8.32812C43.7459 7.77824 43.5257 7.25203 43.1368 6.86319C42.748 6.47435 42.2218 6.25409 41.6719 6.25Z" fill="black"/>
</svg>
