<svg width="20" height="21" viewBox="0 0 20 21" fill="none" xmlns="http://www.w3.org/2000/svg">
<path d="M10.0002 18.7507C10.8702 18.7507 11.7102 18.6107 12.4942 18.3547C12.107 17.8513 11.7801 17.3042 11.5202 16.7247C11.0242 17.4257 10.4862 17.7507 10.0002 17.7507C9.34319 17.7507 8.59319 17.1607 7.97819 15.8427C7.74411 15.3302 7.55733 14.7973 7.42019 14.2507H11.0042C11.0162 13.9087 11.0632 13.5737 11.1412 13.2507H7.20619C7.06723 12.4247 6.99832 11.5884 7.00019 10.7507C7.00019 9.86773 7.07319 9.02573 7.20619 8.25073H12.7942C12.9142 8.95473 12.9862 9.71374 12.9982 10.5087C13.3002 10.3027 13.6292 10.1337 13.9842 10.0087C13.9584 9.41987 13.8993 8.83293 13.8072 8.25073H16.5402C16.7502 8.79974 16.8932 9.38173 16.9592 9.98673C17.3332 10.1137 17.6802 10.2887 17.9962 10.5037C17.9477 8.93274 17.4374 7.41085 16.5292 6.12807C15.621 4.84529 14.3551 3.85845 12.8894 3.29077C11.4238 2.72309 9.82341 2.59971 8.28808 2.93605C6.75275 3.27239 5.3505 4.05353 4.25642 5.18196C3.16234 6.31039 2.42489 7.7361 2.13615 9.28109C1.84742 10.8261 2.02018 12.4219 2.63288 13.8693C3.24557 15.3167 4.27105 16.5516 5.58129 17.4197C6.89152 18.2878 8.42845 18.7508 10.0002 18.7507ZM10.0002 3.75073C10.6572 3.75073 11.4072 4.34073 12.0222 5.65873C12.2392 6.12473 12.4282 6.66073 12.5812 7.25073H7.41919C7.57219 6.66073 7.76119 6.12473 7.97919 5.65873C8.59219 4.34073 9.34219 3.75073 10.0002 3.75073ZM7.07219 5.23573C6.7769 5.88255 6.54806 6.55768 6.38919 7.25073H3.93619C4.78043 5.7916 6.12142 4.68488 7.71419 4.13273C7.47319 4.46273 7.25819 4.83674 7.07219 5.23573ZM6.19219 8.25073C6.06277 9.07775 5.99857 9.91366 6.00019 10.7507C6.00019 11.6207 6.06719 12.4627 6.19319 13.2507H3.46019C3.15522 12.4526 2.9993 11.6052 3.00019 10.7507C3.00019 9.87073 3.16319 9.02673 3.46019 8.25073H6.19219ZM6.38919 14.2507C6.56519 14.9937 6.79619 15.6727 7.07219 16.2657C7.25819 16.6647 7.47319 17.0387 7.71419 17.3687C6.12142 16.8166 4.78043 15.7099 3.93619 14.2507H6.38919ZM12.2862 4.13273C13.879 4.6848 15.22 5.79155 16.0642 7.25073H13.6102C13.4513 6.55768 13.2225 5.88255 12.9272 5.23573C12.7491 4.84829 12.5341 4.47892 12.2852 4.13273H12.2862ZM19.0002 14.4327C19.0002 12.3997 17.5352 10.7517 15.5012 10.7517C13.4682 10.7517 12.0002 12.3997 12.0002 14.4327C12.0002 15.9567 12.9822 17.9627 15.2562 19.6687C15.4012 19.7787 15.6012 19.7787 15.7462 19.6687C18.0222 17.9627 19.0002 15.9567 19.0002 14.4327ZM17.0002 14.2507C17.0002 14.6486 16.8422 15.0301 16.5608 15.3114C16.2795 15.5927 15.898 15.7507 15.5002 15.7507C15.1024 15.7507 14.7208 15.5927 14.4395 15.3114C14.1582 15.0301 14.0002 14.6486 14.0002 14.2507C14.0002 13.8529 14.1582 13.4714 14.4395 13.1901C14.7208 12.9088 15.1024 12.7507 15.5002 12.7507C15.898 12.7507 16.2795 12.9088 16.5608 13.1901C16.8422 13.4714 17.0002 13.8529 17.0002 14.2507Z" fill="#03045E"/>
</svg>
