<svg width="678" height="21" viewBox="0 0 678 21" fill="none" xmlns="http://www.w3.org/2000/svg">
<line y1="10" x2="236.002" y2="10" stroke="#03045E" stroke-opacity="0.5"/>
<path d="M269.738 5.228L266.434 11.598V15H264.474V11.598L261.156 5.228H263.368L265.468 9.694L267.554 5.228H269.738ZM274.313 15.126C273.566 15.126 272.894 14.9627 272.297 14.636C271.699 14.3 271.228 13.8287 270.883 13.222C270.547 12.6153 270.379 11.9153 270.379 11.122C270.379 10.3287 270.551 9.62867 270.897 9.022C271.251 8.41533 271.732 7.94867 272.339 7.622C272.945 7.286 273.622 7.118 274.369 7.118C275.115 7.118 275.792 7.286 276.399 7.622C277.005 7.94867 277.481 8.41533 277.827 9.022C278.181 9.62867 278.359 10.3287 278.359 11.122C278.359 11.9153 278.177 12.6153 277.813 13.222C277.458 13.8287 276.973 14.3 276.357 14.636C275.75 14.9627 275.069 15.126 274.313 15.126ZM274.313 13.418C274.667 13.418 274.999 13.334 275.307 13.166C275.624 12.9887 275.876 12.7273 276.063 12.382C276.249 12.0367 276.343 11.6167 276.343 11.122C276.343 10.3847 276.147 9.82 275.755 9.428C275.372 9.02667 274.901 8.826 274.341 8.826C273.781 8.826 273.309 9.02667 272.927 9.428C272.553 9.82 272.367 10.3847 272.367 11.122C272.367 11.8593 272.549 12.4287 272.913 12.83C273.286 13.222 273.753 13.418 274.313 13.418ZM287.118 7.244V15H285.144V14.02C284.892 14.356 284.561 14.622 284.15 14.818C283.749 15.0047 283.31 15.098 282.834 15.098C282.228 15.098 281.691 14.972 281.224 14.72C280.758 14.4587 280.389 14.0807 280.118 13.586C279.857 13.082 279.726 12.4847 279.726 11.794V7.244H281.686V11.514C281.686 12.13 281.84 12.606 282.148 12.942C282.456 13.2687 282.876 13.432 283.408 13.432C283.95 13.432 284.374 13.2687 284.682 12.942C284.99 12.606 285.144 12.13 285.144 11.514V7.244H287.118ZM291.012 8.448C291.264 8.03733 291.591 7.71533 291.992 7.482C292.403 7.24867 292.87 7.132 293.392 7.132V9.19H292.874C292.258 9.19 291.792 9.33467 291.474 9.624C291.166 9.91333 291.012 10.4173 291.012 11.136V15H289.052V7.244H291.012V8.448ZM302.584 15.098C301.67 15.098 300.83 14.8833 300.064 14.454C299.299 14.0247 298.692 13.432 298.244 12.676C297.796 11.9107 297.572 11.0473 297.572 10.086C297.572 9.134 297.796 8.28 298.244 7.524C298.692 6.75867 299.299 6.16133 300.064 5.732C300.83 5.30267 301.67 5.088 302.584 5.088C303.508 5.088 304.348 5.30267 305.104 5.732C305.87 6.16133 306.472 6.75867 306.91 7.524C307.358 8.28 307.582 9.134 307.582 10.086C307.582 11.0473 307.358 11.9107 306.91 12.676C306.472 13.432 305.87 14.0247 305.104 14.454C304.339 14.8833 303.499 15.098 302.584 15.098ZM302.584 13.348C303.172 13.348 303.69 13.2173 304.138 12.956C304.586 12.6853 304.936 12.3027 305.188 11.808C305.44 11.3133 305.566 10.7393 305.566 10.086C305.566 9.43267 305.44 8.86333 305.188 8.378C304.936 7.88333 304.586 7.50533 304.138 7.244C303.69 6.98267 303.172 6.852 302.584 6.852C301.996 6.852 301.474 6.98267 301.016 7.244C300.568 7.50533 300.218 7.88333 299.966 8.378C299.714 8.86333 299.588 9.43267 299.588 10.086C299.588 10.7393 299.714 11.3133 299.966 11.808C300.218 12.3027 300.568 12.6853 301.016 12.956C301.474 13.2173 301.996 13.348 302.584 13.348ZM319.792 7.244L317.524 15H315.41L313.996 9.582L312.582 15H310.454L308.172 7.244H310.16L311.532 13.152L313.016 7.244H315.088L316.544 13.138L317.916 7.244H319.792ZM325.151 7.132C326.075 7.132 326.822 7.426 327.391 8.014C327.96 8.59267 328.245 9.40467 328.245 10.45V15H326.285V10.716C326.285 10.1 326.131 9.62867 325.823 9.302C325.515 8.966 325.095 8.798 324.563 8.798C324.022 8.798 323.592 8.966 323.275 9.302C322.967 9.62867 322.813 10.1 322.813 10.716V15H320.853V7.244H322.813V8.21C323.074 7.874 323.406 7.61267 323.807 7.426C324.218 7.23 324.666 7.132 325.151 7.132ZM356.691 13.138H352.799L352.155 15H350.097L353.611 5.214H355.893L359.407 15H357.335L356.691 13.138ZM356.159 11.57L354.745 7.482L353.331 11.57H356.159ZM363.688 15.126C363.053 15.126 362.484 15.014 361.98 14.79C361.476 14.5567 361.075 14.244 360.776 13.852C360.487 13.46 360.328 13.026 360.3 12.55H362.274C362.311 12.8487 362.456 13.096 362.708 13.292C362.969 13.488 363.291 13.586 363.674 13.586C364.047 13.586 364.337 13.5113 364.542 13.362C364.757 13.2127 364.864 13.0213 364.864 12.788C364.864 12.536 364.733 12.3493 364.472 12.228C364.22 12.0973 363.814 11.9573 363.254 11.808C362.675 11.668 362.199 11.5233 361.826 11.374C361.462 11.2247 361.145 10.996 360.874 10.688C360.613 10.38 360.482 9.96467 360.482 9.442C360.482 9.01267 360.603 8.62067 360.846 8.266C361.098 7.91133 361.453 7.63133 361.91 7.426C362.377 7.22067 362.923 7.118 363.548 7.118C364.472 7.118 365.209 7.35133 365.76 7.818C366.311 8.27533 366.614 8.896 366.67 9.68H364.794C364.766 9.372 364.635 9.12933 364.402 8.952C364.178 8.76533 363.875 8.672 363.492 8.672C363.137 8.672 362.862 8.73733 362.666 8.868C362.479 8.99867 362.386 9.18067 362.386 9.414C362.386 9.67533 362.517 9.876 362.778 10.016C363.039 10.1467 363.445 10.282 363.996 10.422C364.556 10.562 365.018 10.7067 365.382 10.856C365.746 11.0053 366.059 11.2387 366.32 11.556C366.591 11.864 366.731 12.2747 366.74 12.788C366.74 13.236 366.614 13.6373 366.362 13.992C366.119 14.3467 365.765 14.6267 365.298 14.832C364.841 15.028 364.304 15.126 363.688 15.126ZM371.317 15.126C370.682 15.126 370.113 15.014 369.609 14.79C369.105 14.5567 368.704 14.244 368.405 13.852C368.116 13.46 367.957 13.026 367.929 12.55H369.903C369.94 12.8487 370.085 13.096 370.337 13.292C370.598 13.488 370.92 13.586 371.303 13.586C371.676 13.586 371.966 13.5113 372.171 13.362C372.386 13.2127 372.493 13.0213 372.493 12.788C372.493 12.536 372.362 12.3493 372.101 12.228C371.849 12.0973 371.443 11.9573 370.883 11.808C370.304 11.668 369.828 11.5233 369.455 11.374C369.091 11.2247 368.774 10.996 368.503 10.688C368.242 10.38 368.111 9.96467 368.111 9.442C368.111 9.01267 368.232 8.62067 368.475 8.266C368.727 7.91133 369.082 7.63133 369.539 7.426C370.006 7.22067 370.552 7.118 371.177 7.118C372.101 7.118 372.838 7.35133 373.389 7.818C373.94 8.27533 374.243 8.896 374.299 9.68H372.423C372.395 9.372 372.264 9.12933 372.031 8.952C371.807 8.76533 371.504 8.672 371.121 8.672C370.766 8.672 370.491 8.73733 370.295 8.868C370.108 8.99867 370.015 9.18067 370.015 9.414C370.015 9.67533 370.146 9.876 370.407 10.016C370.668 10.1467 371.074 10.282 371.625 10.422C372.185 10.562 372.647 10.7067 373.011 10.856C373.375 11.0053 373.688 11.2387 373.949 11.556C374.22 11.864 374.36 12.2747 374.369 12.788C374.369 13.236 374.243 13.6373 373.991 13.992C373.748 14.3467 373.394 14.6267 372.927 14.832C372.47 15.028 371.933 15.126 371.317 15.126ZM376.972 6.32C376.627 6.32 376.337 6.21267 376.104 5.998C375.88 5.774 375.768 5.49867 375.768 5.172C375.768 4.84533 375.88 4.57467 376.104 4.36C376.337 4.136 376.627 4.024 376.972 4.024C377.317 4.024 377.602 4.136 377.826 4.36C378.059 4.57467 378.176 4.84533 378.176 5.172C378.176 5.49867 378.059 5.774 377.826 5.998C377.602 6.21267 377.317 6.32 376.972 6.32ZM377.938 7.244V15H375.978V7.244H377.938ZM382.842 15.126C382.208 15.126 381.638 15.014 381.134 14.79C380.63 14.5567 380.229 14.244 379.93 13.852C379.641 13.46 379.482 13.026 379.454 12.55H381.428C381.466 12.8487 381.61 13.096 381.862 13.292C382.124 13.488 382.446 13.586 382.828 13.586C383.202 13.586 383.491 13.5113 383.696 13.362C383.911 13.2127 384.018 13.0213 384.018 12.788C384.018 12.536 383.888 12.3493 383.626 12.228C383.374 12.0973 382.968 11.9573 382.408 11.808C381.83 11.668 381.354 11.5233 380.98 11.374C380.616 11.2247 380.299 10.996 380.028 10.688C379.767 10.38 379.636 9.96467 379.636 9.442C379.636 9.01267 379.758 8.62067 380 8.266C380.252 7.91133 380.607 7.63133 381.064 7.426C381.531 7.22067 382.077 7.118 382.702 7.118C383.626 7.118 384.364 7.35133 384.914 7.818C385.465 8.27533 385.768 8.896 385.824 9.68H383.948C383.92 9.372 383.79 9.12933 383.556 8.952C383.332 8.76533 383.029 8.672 382.646 8.672C382.292 8.672 382.016 8.73733 381.82 8.868C381.634 8.99867 381.54 9.18067 381.54 9.414C381.54 9.67533 381.671 9.876 381.932 10.016C382.194 10.1467 382.6 10.282 383.15 10.422C383.71 10.562 384.172 10.7067 384.536 10.856C384.9 11.0053 385.213 11.2387 385.474 11.556C385.745 11.864 385.885 12.2747 385.894 12.788C385.894 13.236 385.768 13.6373 385.516 13.992C385.274 14.3467 384.919 14.6267 384.452 14.832C383.995 15.028 383.458 15.126 382.842 15.126ZM389.785 8.854V12.606C389.785 12.8673 389.846 13.0587 389.967 13.18C390.098 13.292 390.313 13.348 390.611 13.348H391.521V15H390.289C388.637 15 387.811 14.1973 387.811 12.592V8.854H386.887V7.244H387.811V5.326H389.785V7.244H391.521V8.854H389.785ZM392.427 11.094C392.427 10.31 392.581 9.61467 392.889 9.008C393.206 8.40133 393.631 7.93467 394.163 7.608C394.704 7.28133 395.306 7.118 395.969 7.118C396.548 7.118 397.052 7.23467 397.481 7.468C397.92 7.70133 398.27 7.99533 398.531 8.35V7.244H400.505V15H398.531V13.866C398.279 14.23 397.929 14.5333 397.481 14.776C397.042 15.0093 396.534 15.126 395.955 15.126C395.302 15.126 394.704 14.958 394.163 14.622C393.631 14.286 393.206 13.8147 392.889 13.208C392.581 12.592 392.427 11.8873 392.427 11.094ZM398.531 11.122C398.531 10.646 398.438 10.24 398.251 9.904C398.064 9.55867 397.812 9.29733 397.495 9.12C397.178 8.93333 396.837 8.84 396.473 8.84C396.109 8.84 395.773 8.92867 395.465 9.106C395.157 9.28333 394.905 9.54467 394.709 9.89C394.522 10.226 394.429 10.6273 394.429 11.094C394.429 11.5607 394.522 11.9713 394.709 12.326C394.905 12.6713 395.157 12.9373 395.465 13.124C395.782 13.3107 396.118 13.404 396.473 13.404C396.837 13.404 397.178 13.3153 397.495 13.138C397.812 12.9513 398.064 12.69 398.251 12.354C398.438 12.0087 398.531 11.598 398.531 11.122ZM406.717 7.132C407.641 7.132 408.388 7.426 408.957 8.014C409.527 8.59267 409.811 9.40467 409.811 10.45V15H407.851V10.716C407.851 10.1 407.697 9.62867 407.389 9.302C407.081 8.966 406.661 8.798 406.129 8.798C405.588 8.798 405.159 8.966 404.841 9.302C404.533 9.62867 404.379 10.1 404.379 10.716V15H402.419V7.244H404.379V8.21C404.641 7.874 404.972 7.61267 405.373 7.426C405.784 7.23 406.232 7.132 406.717 7.132ZM413.957 8.854V12.606C413.957 12.8673 414.018 13.0587 414.139 13.18C414.27 13.292 414.485 13.348 414.783 13.348H415.693V15H414.461C412.809 15 411.983 14.1973 411.983 12.592V8.854H411.059V7.244H411.983V5.326H413.957V7.244H415.693V8.854H413.957Z" fill="black"/>
<path d="M339.437 13.138H335.545L334.901 15H332.843L336.357 5.214H338.639L342.153 15H340.081L339.437 13.138ZM338.905 11.57L337.491 7.482L336.077 11.57H338.905ZM345.426 5.228V15H343.466V5.228H345.426Z" fill="#0077B6"/>
<line x1="442.002" y1="10" x2="678.004" y2="10" stroke="#03045E" stroke-opacity="0.5"/>
</svg>
