<svg width="50" height="50" viewBox="0 0 50 50" fill="none" xmlns="http://www.w3.org/2000/svg">
<path d="M24.979 4.16675C13.479 4.16675 4.1665 13.5001 4.1665 25.0001C4.1665 36.5001 13.479 45.8334 24.979 45.8334C36.4998 45.8334 45.8332 36.5001 45.8332 25.0001C45.8332 13.5001 36.4998 4.16675 24.979 4.16675ZM24.9998 41.6667C15.7915 41.6667 8.33317 34.2084 8.33317 25.0001C8.33317 15.7917 15.7915 8.33341 24.9998 8.33341C34.2082 8.33341 41.6665 15.7917 41.6665 25.0001C41.6665 34.2084 34.2082 41.6667 24.9998 41.6667Z" fill="black"/>
<path d="M26.0415 14.5833H22.9165V27.0833L33.854 33.6458L35.4165 31.0833L26.0415 25.5208V14.5833Z" fill="black"/>
</svg>
