<svg width="27" height="27" viewBox="0 0 27 27" fill="none" xmlns="http://www.w3.org/2000/svg">
<rect width="27" height="27" rx="5.70302" fill="url(#paint0_linear_983_110)"/>
<path d="M11.2531 13.5346C11.2531 12.2909 12.2607 11.2824 13.5041 11.2824C14.7474 11.2824 15.7556 12.2909 15.7556 13.5346C15.7556 14.7783 14.7474 15.7867 13.5041 15.7867C12.2607 15.7867 11.2531 14.7783 11.2531 13.5346ZM10.0359 13.5346C10.0359 15.4506 11.5886 17.0037 13.5041 17.0037C15.4195 17.0037 16.9722 15.4506 16.9722 13.5346C16.9722 11.6186 15.4195 10.0654 13.5041 10.0654C11.5886 10.0654 10.0359 11.6186 10.0359 13.5346ZM16.299 9.92789C16.2989 10.0882 16.3464 10.245 16.4354 10.3784C16.5244 10.5117 16.6509 10.6157 16.799 10.6771C16.9471 10.7385 17.11 10.7546 17.2673 10.7234C17.4245 10.6922 17.5689 10.615 17.6823 10.5017C17.7957 10.3884 17.873 10.2439 17.9043 10.0867C17.9357 9.92944 17.9197 9.76643 17.8584 9.61826C17.7971 9.4701 17.6933 9.34344 17.56 9.2543C17.4268 9.16517 17.2701 9.11756 17.1098 9.11749H17.1095C16.8946 9.11759 16.6886 9.20299 16.5366 9.35494C16.3846 9.50689 16.2992 9.71296 16.299 9.92789ZM10.7754 19.0338C10.1169 19.0038 9.75901 18.8941 9.52116 18.8014C9.20583 18.6786 8.98084 18.5323 8.74428 18.296C8.50773 18.0597 8.3613 17.8349 8.23908 17.5195C8.14636 17.2817 8.03667 16.9235 8.00674 16.2649C7.974 15.5527 7.96746 15.3388 7.96746 13.5346C7.96746 11.7304 7.97454 11.5171 8.00674 10.8044C8.03673 10.1457 8.14722 9.78828 8.23908 9.54977C8.36184 9.23434 8.50805 9.00929 8.74428 8.77267C8.98051 8.53604 9.20529 8.38957 9.52116 8.26732C9.7589 8.17457 10.1169 8.06485 10.7754 8.03491C11.4873 8.00216 11.7012 7.99562 13.5041 7.99562C15.3069 7.99562 15.521 8.0027 16.2335 8.03491C16.892 8.06491 17.2493 8.17544 17.4878 8.26732C17.8031 8.38957 18.0281 8.53637 18.2646 8.77267C18.5012 9.00896 18.6471 9.23434 18.7698 9.54977C18.8626 9.78758 18.9722 10.1457 19.0022 10.8044C19.0349 11.5171 19.0415 11.7304 19.0415 13.5346C19.0415 15.3388 19.0349 15.5521 19.0022 16.2649C18.9722 16.9235 18.862 17.2816 18.7698 17.5195C18.6471 17.8349 18.5009 18.06 18.2646 18.296C18.0284 18.5321 17.8031 18.6786 17.4878 18.8014C17.25 18.8941 16.892 19.0038 16.2335 19.0338C15.5216 19.0665 15.3077 19.0731 13.5041 19.0731C11.7004 19.0731 11.4871 19.0665 10.7754 19.0338ZM10.7195 6.81948C10.0005 6.85223 9.50916 6.96627 9.08009 7.13328C8.63573 7.30575 8.25956 7.53713 7.88365 7.91255C7.50775 8.28796 7.27703 8.66484 7.10461 9.10933C6.93765 9.5388 6.82365 10.03 6.7909 10.7492C6.75762 11.4696 6.75 11.6999 6.75 13.5346C6.75 15.3693 6.75762 15.5996 6.7909 16.3199C6.82365 17.0392 6.93765 17.5303 7.10461 17.9598C7.27703 18.404 7.5078 18.7813 7.88365 19.1566C8.2595 19.5318 8.63573 19.7629 9.08009 19.9358C9.50998 20.1029 10.0005 20.2169 10.7195 20.2497C11.44 20.2824 11.6699 20.2906 13.5041 20.2906C15.3382 20.2906 15.5685 20.2829 16.2886 20.2497C17.0077 20.2169 17.4987 20.1029 17.928 19.9358C18.3721 19.7629 18.7485 19.532 19.1244 19.1566C19.5004 18.7812 19.7306 18.404 19.9035 17.9598C20.0704 17.5303 20.185 17.0391 20.2172 16.3199C20.2499 15.599 20.2576 15.3693 20.2576 13.5346C20.2576 11.6999 20.2499 11.4696 20.2172 10.7492C20.1845 10.0299 20.0704 9.53853 19.9035 9.10933C19.7306 8.66511 19.4998 8.28856 19.1244 7.91255C18.7491 7.53653 18.3721 7.30575 17.9285 7.13328C17.4987 6.96627 17.0076 6.85169 16.2892 6.81948C15.569 6.78673 15.3388 6.77856 13.5046 6.77856C11.6704 6.77856 11.44 6.78619 10.7195 6.81948Z" fill="white"/>
<defs>
<linearGradient id="paint0_linear_983_110" x1="26.4811" y1="27" x2="-0.518939" y2="-7.26764e-07" gradientUnits="userSpaceOnUse">
<stop stop-color="#FBE18A"/>
<stop offset="0.21" stop-color="#FCBB45"/>
<stop offset="0.38" stop-color="#F75274"/>
<stop offset="0.52" stop-color="#D53692"/>
<stop offset="0.74" stop-color="#8F39CE"/>
<stop offset="1" stop-color="#5B4FE9"/>
</linearGradient>
</defs>
</svg>
