<svg width="50" height="50" viewBox="0 0 50 50" fill="none" xmlns="http://www.w3.org/2000/svg">
<path d="M34.375 4.6875H15.625C12.7251 4.6906 9.94495 5.84394 7.89445 7.89445C5.84394 9.94495 4.6906 12.7251 4.6875 15.625V34.375C4.6906 37.2749 5.84394 40.055 7.89445 42.1056C9.94495 44.1561 12.7251 45.3094 15.625 45.3125H34.375C37.2749 45.3094 40.055 44.1561 42.1056 42.1056C44.1561 40.055 45.3094 37.2749 45.3125 34.375V15.625C45.3094 12.7251 44.1561 9.94495 42.1056 7.89445C40.055 5.84394 37.2749 4.6906 34.375 4.6875ZM25 34.375C23.1458 34.375 21.3332 33.8252 19.7915 32.795C18.2498 31.7649 17.0482 30.3007 16.3386 28.5877C15.6291 26.8746 15.4434 24.9896 15.8051 23.171C16.1669 21.3525 17.0598 19.682 18.3709 18.3709C19.682 17.0598 21.3525 16.1669 23.171 15.8051C24.9896 15.4434 26.8746 15.6291 28.5877 16.3386C30.3007 17.0482 31.7649 18.2498 32.795 19.7915C33.8252 21.3332 34.375 23.1458 34.375 25C34.3724 27.4856 33.3839 29.8687 31.6263 31.6263C29.8687 33.3839 27.4856 34.3724 25 34.375ZM36.7188 15.625C36.2552 15.625 35.8021 15.4875 35.4166 15.23C35.0312 14.9725 34.7308 14.6064 34.5534 14.1782C34.376 13.7499 34.3296 13.2786 34.42 12.824C34.5105 12.3694 34.7337 11.9517 35.0615 11.624C35.3892 11.2962 35.8069 11.073 36.2615 10.9825C36.7162 10.8921 37.1874 10.9385 37.6157 11.1159C38.0439 11.2933 38.41 11.5937 38.6675 11.9791C38.925 12.3646 39.0625 12.8177 39.0625 13.2812C39.0625 13.9029 38.8156 14.499 38.376 14.9385C37.9365 15.3781 37.3404 15.625 36.7188 15.625ZM31.25 25C31.25 26.2361 30.8834 27.4445 30.1967 28.4723C29.5099 29.5001 28.5338 30.3012 27.3918 30.7742C26.2497 31.2473 24.9931 31.3711 23.7807 31.1299C22.5683 30.8888 21.4547 30.2935 20.5806 29.4194C19.7065 28.5453 19.1112 27.4317 18.8701 26.2193C18.6289 25.0069 18.7527 23.7503 19.2258 22.6082C19.6988 21.4662 20.4999 20.4901 21.5277 19.8033C22.5555 19.1166 23.7639 18.75 25 18.75C26.6576 18.75 28.2473 19.4085 29.4194 20.5806C30.5915 21.7527 31.25 23.3424 31.25 25Z" fill="black"/>
</svg>
