<svg width="27" height="27" viewBox="0 0 27 27" fill="none" xmlns="http://www.w3.org/2000/svg">
<rect y="-0.000244141" width="27" height="27" rx="5.70302" fill="#FF0000"/>
<path d="M21.0097 9.78637C20.8334 9.12364 20.3119 8.60083 19.6484 8.42164C18.4488 8.1001 13.6354 8.1001 13.6354 8.1001C13.6354 8.1001 8.82452 8.1001 7.62241 8.42164C6.96137 8.59837 6.43988 9.12119 6.26116 9.78637C5.94043 10.9891 5.94043 13.5001 5.94043 13.5001C5.94043 13.5001 5.94043 16.0111 6.26116 17.2138C6.43743 17.8766 6.95892 18.3994 7.62241 18.5786C8.82452 18.9001 13.6354 18.9001 13.6354 18.9001C13.6354 18.9001 18.4488 18.9001 19.6484 18.5786C20.3095 18.4018 20.831 17.879 21.0097 17.2138C21.3304 16.0111 21.3304 13.5001 21.3304 13.5001C21.3304 13.5001 21.3304 10.9891 21.0097 9.78637Z" fill="white"/>
<path d="M12.0979 15.8147L16.096 13.5001L12.0979 11.1855V15.8147Z" fill="#FF0000"/>
</svg>
